<?xml version="1.0" encoding="UTF-8"?>
<svg width="24px" height="24px" viewBox="0 0 24 24" version="1.1" xmlns="http://www.w3.org/2000/svg" xmlns:xlink="http://www.w3.org/1999/xlink">
    <title>切片</title>
    <defs>
        <linearGradient x1="50%" y1="-0.000229710867%" x2="50%" y2="99.9994959%" id="linearGradient-1">
            <stop stop-color="#2AF598" offset="0%"></stop>
            <stop stop-color="#009EFD" offset="100%"></stop>
        </linearGradient>
    </defs>
    <g id="页面-1" stroke="none" stroke-width="1" fill="none" fill-rule="evenodd">
        <g id="03-GPS&amp;-GSM" transform="translate(-263.000000, -40.000000)">
            <g id="Header" transform="translate(0.000000, 20.000000)">
                <g id="status" transform="translate(75.000000, 20.000000)">
                    <g id="icon/headlight" transform="translate(188.000000, 0.000000)">
                        <rect id="Rectangle" x="0" y="0" width="24" height="24"></rect>
                        <path d="M15.375,15.609375 L24,15.609375 L24,17.484375 L15.079834,17.484375 C15.1882324,16.9083252 15.2900391,16.2797241 15.375,15.609375 Z M15.609375,12 C15.609375,12.3165894 15.6035156,12.6291504 15.5928955,12.9375 L24,12.9375 L24,11.0625 L15.5928955,11.0625 C15.6035156,11.3706665 15.609375,11.6834106 15.609375,12 Z M15.0531006,6.37500002 C15.1636963,6.94885254 15.2686157,7.57763674 15.3568725,8.25000002 L24,8.25000002 L24,6.37500002 L15.0531006,6.37500002 Z M12.3812256,20.5155029 C12.4365234,20.359314 13.734375,16.6356812 13.734375,12 C13.734375,7.36431884 12.4365234,3.64050293 12.3812256,3.48431398 L12.1453857,2.81726074 L11.439331,2.86120605 C11.3250732,2.86834718 8.60925291,3.04833987 5.85479737,4.20391845 C2.02459716,5.81048585 0,8.50634768 0,12 C0,15.4934692 2.02459716,18.1893311 5.85479737,19.7960816 C8.60925291,20.951477 11.3248901,21.1316528 11.4391479,21.1387939 L12.1453857,21.1827393 L12.3812256,20.5155029 Z M11.859375,12 C11.859375,15.1737671 11.1873779,17.9417725 10.8305054,19.1881714 C9.89959716,19.062561 8.20623778,18.7554932 6.54052734,18.0505371 C3.44476317,16.7398682 1.875,14.7042847 1.875,12 C1.875,9.29571532 3.44476317,7.25994874 6.54052734,5.94946287 C8.20678711,5.24414065 9.90087891,4.93707274 10.8312378,4.81164551 C11.1884766,6.05529785 11.859375,8.8157959 11.859375,12 L11.859375,12 Z" id="Shape" fill="url(#linearGradient-1)" fill-rule="nonzero"></path>
                    </g>
                </g>
            </g>
        </g>
    </g>
</svg>