<?xml version="1.0" encoding="UTF-8"?>
<svg width="40px" height="40px" viewBox="0 0 40 40" version="1.1" xmlns="http://www.w3.org/2000/svg" xmlns:xlink="http://www.w3.org/1999/xlink">
    <title>icon_expand</title>
    <g id="页面-1" stroke="none" stroke-width="1" fill="none" fill-rule="evenodd">
        <g id="03-GPS&amp;-GSM" transform="translate(-24.000000, -603.000000)">
            <g id="Expand" transform="translate(44.000000, 623.000000) scale(1, -1) translate(-44.000000, -623.000000) translate(24.000000, 603.000000)">
                <g transform="translate(20.000000, 20.000000) scale(1, -1) translate(-20.000000, -20.000000) ">
                    <rect id="Rectangle" x="0" y="0" width="40" height="40"></rect>
                    <g id="Group-2" transform="translate(12.000000, 9.000000)" fill="#FFFFFF">
                        <g id="Group" opacity="0.60202753" transform="translate(8.071068, 7.928932) rotate(45.000000) translate(-8.071068, -7.928932) translate(3.071068, 2.928932)">
                            <polygon id="矩形" transform="translate(4.292893, 1.308032) rotate(-90.000000) translate(-4.292893, -1.308032) " points="3.29289322 -3.6057608 5.29289322 -3.6057608 5.29289322 6.22182541 3.29289322 4.65255072"></polygon>
                            <polygon id="矩形备份" points="-0.277123446 0.222876554 1.72287655 0.222876554 1.72287655 8.12301636 -0.277123446 10.2228766"></polygon>
                        </g>
                        <g id="Group" opacity="0.401762463" transform="translate(8.071068, 13.928932) rotate(45.000000) translate(-8.071068, -13.928932) translate(3.071068, 8.928932)">
                            <polygon id="矩形" transform="translate(4.292893, 1.308032) rotate(-90.000000) translate(-4.292893, -1.308032) " points="3.29289322 -3.6057608 5.29289322 -3.6057608 5.29289322 6.22182541 3.29289322 4.65255072"></polygon>
                            <polygon id="矩形备份" points="-0.277123446 0.222876554 1.72287655 0.222876554 1.72287655 8.12301636 -0.277123446 10.2228766"></polygon>
                        </g>
                        <g id="Group" opacity="0.20156715" transform="translate(7.949747, 17.050253) rotate(45.000000) translate(-7.949747, -17.050253) translate(4.449747, 13.550253)">
                            <polygon id="矩形" transform="translate(3.500000, 1.343146) rotate(-90.000000) translate(-3.500000, -1.343146) " points="3 -1.65685425 4 -1.65685425 4 4.34314575 3 3.38506226"></polygon>
                            <polygon id="矩形备份" points="0.171572875 1.17157288 1.17157288 1.17157288 1.17157288 5.91165676 0.171572875 7.17157288"></polygon>
                        </g>
                    </g>
                </g>
            </g>
        </g>
    </g>
</svg>