<?xml version="1.0" encoding="UTF-8"?>
<svg width="29px" height="28px" viewBox="0 0 29 28" version="1.1" xmlns="http://www.w3.org/2000/svg" xmlns:xlink="http://www.w3.org/1999/xlink">
    <!-- Generator: Sketch 61 (89581) - https://sketch.com -->
    <title>icon_navbar_bike</title>
    <desc>Created with Sketch.</desc>
    <g id="Page-1" stroke="none" stroke-width="1" fill="none" fill-rule="evenodd">
        <g id="02---E-bike-Bluetooth-1" transform="translate(-173.000000, -623.000000)">
            <g id="Tab-Bars" transform="translate(0.000000, 619.000000)">
                <g id="Navbar">
                    <g id="E-bike" transform="translate(130.000000, 0.000000)">
                        <g id="navbar/icon/active" transform="translate(33.500000, 0.000000)">
                            <g id="icon_ebike">
                                <g id="icon/navbar/bike" transform="translate(10.000000, 4.000000)">
                                    <g id="E-bike">
                                        <rect id="Rectangle" x="0" y="0" width="28" height="28"></rect>
                                        <path d="M21.1030156,11.7059844 C20.4837031,11.7059844 19.8910625,11.8218125 19.3451563,12.0325156 C18.9174688,11.0820781 18.5479531,10.0769375 18.3634063,9.14182813 C18.0670156,7.64004688 16.7399375,6.5500625 15.207875,6.5500625 C14.8195625,6.5500625 14.50475,6.864875 14.50475,7.2531875 C14.50475,7.6415 14.8195625,7.9563125 15.207875,7.9563125 C15.3751719,7.9563125 15.5380625,7.97965625 15.6932656,8.02301563 C16.1649687,8.15482813 16.5652344,8.47385938 16.7986719,8.90229688 C16.7797812,8.92629688 16.7617813,8.9511875 16.7457969,8.97814063 L16.5273594,9.345875 L15.4222344,11.2063438 L9.51767188,11.2063438 L9.18204688,10.3616094 L9.32135938,10.3616094 C9.70967188,10.3616094 10.0244844,10.0467969 10.0244844,9.65848438 C10.0244844,9.27017188 9.70967188,8.95535938 9.32135938,8.95535938 L6.89703125,8.95535938 C6.50871875,8.95535938 6.19390625,9.27017188 6.19390625,9.65848438 C6.19390625,10.0467969 6.50871875,10.3616094 6.89703125,10.3616094 L7.668875,10.3616094 L8.28246875,11.9058594 C7.84296875,11.7760156 7.3780625,11.7059375 6.89703125,11.7059375 C4.19679688,11.7059844 2,13.9027813 2,16.6029688 C2,19.3031563 4.19679688,21.5 6.89698437,21.5 C9.3584375,21.5 11.40125,19.6743594 11.7432969,17.3060938 L13.0345625,17.3060938 C13.282625,17.3060938 13.5123594,17.1753594 13.6390625,16.9620781 L17.3340781,10.7414844 C17.5508281,11.4122656 17.8221406,12.0843594 18.1145938,12.7264531 C16.9545781,13.6227969 16.2060313,15.0270313 16.2060313,16.6030156 C16.2060313,19.3032031 18.4028281,21.5 21.1030156,21.5 C23.8032031,21.5 26,19.3032031 26,16.6030156 C26,13.9028281 23.8032031,11.7059844 21.1030156,11.7059844 Z M6.89698438,17.3060938 L10.3165625,17.3060938 C9.9903125,18.8950156 8.58101562,20.0937031 6.89698438,20.0937031 C4.97220313,20.0937031 3.40625,18.52775 3.40625,16.6029688 C3.40625,14.6781875 4.97220313,13.1122344 6.89698438,13.1122344 C8.58101562,13.1122344 9.9903125,14.3109219 10.3165625,15.8998438 L6.89698438,15.8998438 C6.50867187,15.8998438 6.19385937,16.2146563 6.19385937,16.6029688 C6.19385937,16.9912813 6.50867188,17.3060938 6.89698438,17.3060938 Z M12.6343906,15.8998438 L11.7432969,15.8998438 C11.580125,14.7702031 11.0300469,13.7641719 10.232,13.0207344 C10.2246875,12.9925156 10.2162031,12.9643906 10.2051406,12.9365938 L10.0764219,12.6126406 L14.5869687,12.6126406 L12.6343906,15.8998438 Z M21.1030156,20.0936563 C19.1781875,20.0936563 17.6122813,18.5277031 17.6122813,16.6029219 C17.6122813,15.58325 18.051875,14.6644063 18.7513906,14.0255938 C19.6161406,15.6782188 20.4607813,16.9101875 20.5243437,17.0023438 C20.6607969,17.2000156 20.8803125,17.3060938 21.103625,17.3060938 C21.2413437,17.3060938 21.3805156,17.2656875 21.5024375,17.1815469 C21.8220312,16.9609531 21.9022812,16.5230469 21.6816875,16.2034531 C21.6665469,16.1815156 20.8156719,14.9406875 19.963625,13.3040938 C20.321,13.1802969 20.7041094,13.1121406 21.1030156,13.1121406 C23.0277969,13.1121406 24.59375,14.6780938 24.59375,16.602875 C24.59375,18.5276563 23.0277969,20.0936563 21.1030156,20.0936563 Z" id="Shape" fill="#222B45" fill-rule="nonzero"></path>
                                    </g>
                                </g>
                            </g>
                        </g>
                    </g>
                </g>
            </g>
        </g>
    </g>
</svg>