<?xml version="1.0" encoding="UTF-8"?>
<svg width="29px" height="28px" viewBox="0 0 29 28" version="1.1" xmlns="http://www.w3.org/2000/svg" xmlns:xlink="http://www.w3.org/1999/xlink">
    <title>icon_navbar_center</title>
    <g id="页面-1" stroke="none" stroke-width="1" fill="none" fill-rule="evenodd">
        <g id="02---Center" transform="translate(-298.000000, -623.000000)">
            <g id="Tab-Bars" transform="translate(0.000000, 619.000000)">
                <g id="Center" transform="translate(255.000000, 0.000000)">
                    <g id="navbar/icon" transform="translate(33.000000, 0.000000)">
                        <g id="icon_map" transform="translate(0.500000, 0.000000)">
                            <g id="Center" transform="translate(10.000000, 4.000000)">
                                <rect id="Rectangle" x="0" y="0" width="28" height="28"></rect>
                                <path d="M14,6 C18.4219971,6 22,9.57849122 22,14 C22,18.4024658 18.4335938,22 14,22 C9.54809569,22 6,18.3823242 6,14 C6,9.57800294 9.57849122,6 14,6 Z M18.1783914,18.5590448 C15.9539844,16.0638362 12.0465799,16.0632553 9.82149512,18.5590448 C12.0550031,21.0575453 15.9458516,21.0567707 18.1783914,18.5590448 Z M14,7.43314343 C10.3789569,7.43314343 7.43304279,10.3790575 7.43304279,14.0001006 C7.43304279,15.3247064 7.82701937,16.5978943 8.55765237,17.6763073 C11.4968697,14.5147333 16.5084651,14.5204085 19.4423476,17.6763073 C20.1729806,16.5978943 20.5669572,15.3247064 20.5669572,14.0001006 C20.5669572,10.3790575 17.6210431,7.43314343 14,7.43314343 Z M14,8.56915158 C15.4515347,8.56915158 16.6325063,9.75012314 16.6325063,11.2016578 L16.6325063,11.2016578 L16.6325063,12.0791599 C16.6325063,13.5306946 15.4515347,14.7116662 14,14.7116662 C12.5484653,14.7116662 11.3674937,13.5306946 11.3674937,12.0791599 L11.3674937,12.0791599 L11.3674937,11.2016578 C11.3674937,9.75012314 12.5484653,8.56915158 14,8.56915158 Z M14,9.86365373 C13.2161919,9.86365373 12.5785959,10.5012497 12.5785959,11.2850579 L12.5785959,11.2850579 L12.5785959,11.9957599 C12.5785959,12.7795681 13.2161919,13.417164 14,13.417164 C14.7838081,13.417164 15.4214041,12.7795681 15.4214041,11.9957599 L15.4214041,11.9957599 L15.4214041,11.2850579 C15.4214041,10.5012497 14.7838081,9.86365373 14,9.86365373 Z" id="icon_navbar_center" fill="#222B45" fill-rule="nonzero"></path>
                            </g>
                        </g>
                    </g>
                </g>
            </g>
        </g>
    </g>
</svg>