<?xml version="1.0" encoding="UTF-8"?>
<svg width="29px" height="28px" viewBox="0 0 29 28" version="1.1" xmlns="http://www.w3.org/2000/svg" xmlns:xlink="http://www.w3.org/1999/xlink">
    <!-- Generator: Sketch 61 (89581) - https://sketch.com -->
    <title>icon_navbar_map</title>
    <desc>Created with Sketch.</desc>
    <g id="Page-1" stroke="none" stroke-width="1" fill="none" fill-rule="evenodd">
        <g id="03---Map-detaills" transform="translate(-48.000000, -623.000000)">
            <g id="Tab-Bars" transform="translate(0.000000, 619.000000)">
                <g id="Navbar">
                    <g id="Map" transform="translate(5.000000, 0.000000)">
                        <g id="navbar/icon" transform="translate(32.500000, 0.000000)">
                            <g id="nav-icon">
                                <g id="icon_map" transform="translate(1.000000, 0.000000)">
                                    <g id="icon/navbar/map" transform="translate(10.000000, 4.000000)">
                                        <g id="icon_map">
                                            <rect id="Rectangle" x="0" y="1.13686838e-13" width="28" height="28"></rect>
                                            <path d="M9.20072,18.056 C9.63364,17.96816 10.05604,18.24772 10.144,18.68068 C10.23196,19.11364 9.95228,19.536 9.51932,19.62396 C7.89812,19.95336 7.23352,20.34872 7.0418,20.54044 C7.18304,20.682 7.65528,21.03724 9.0428,21.37124 C10.40568,21.69932 12.16612,21.88 14,21.88 C15.83388,21.88 17.59432,21.69932 18.95724,21.37124 C20.34472,21.03724 20.817,20.68196 20.95824,20.54044 C20.76652,20.34872 20.10188,19.95336 18.48072,19.62396 C18.04776,19.536 17.76808,19.11364 17.85604,18.68068 C17.94404,18.24776 18.36612,17.96812 18.79932,18.056 C19.85028,18.26956 20.6952,18.54152 21.3106,18.86432 C22.16616,19.31312 22.6,19.87752 22.6,20.54176 C22.6,21.53432 21.63336,22.3026 19.72696,22.82524 C18.18676,23.24748 16.15288,23.48 14,23.48 C11.84712,23.48 9.81324,23.24748 8.27304,22.82524 C6.36664,22.3026 5.4,21.53432 5.4,20.54176 C5.4,19.87752 5.83384,19.31312 6.68944,18.86432 C7.30484,18.54152 8.14976,18.26956 9.20072,18.056 Z M14,3 C15.85588,3 17.60008,3.70948 18.91116,4.99776 C20.23024,6.29392 20.95784,8.02744 20.96,9.87904 C20.95716,12.83276 19.09172,14.82156 17.28768,16.74484 C16.3644,17.72912 15.40972,18.747 14.67624,19.9074 C14.52964,20.13936 14.27436,20.28 14,20.28 C13.72564,20.28 13.47036,20.13936 13.32376,19.90744 C12.59304,18.7514 11.6482,17.73736 10.73444,16.75668 C8.9392,14.82992 7.08284,12.8376 7.08,9.8808 C7.08216,8.02644 7.80176,6.29376 9.10628,5.00032 C10.40728,3.7104 12.14524,3 14,3 Z M14,4.6 C11.02024,4.6 8.6834,6.91964 8.68,9.88092 C8.68228,12.20704 10.17576,13.80996 11.90508,15.66592 C12.61484,16.42768 13.34252,17.20864 14.00048,18.07952 C14.66476,17.20244 15.40176,16.41676 16.12072,15.65024 C17.85768,13.79844 19.3578,12.1992 19.36,9.87924 C19.35664,6.96904 16.95216,4.6 14,4.6 Z M14,6.16 C16.07328,6.16 17.76,7.84672 17.76,9.92 C17.76,10.12396 17.74348,10.32876 17.71084,10.52876 C17.63976,10.9648 17.22908,11.26064 16.79252,11.1896 C16.35648,11.11852 16.0606,10.70736 16.13168,10.27128 C16.15044,10.15616 16.15996,10.038 16.15996,9.92004 C16.15996,8.72904 15.19096,7.76004 13.99996,7.76004 C12.80896,7.76004 11.83996,8.72904 11.83996,9.92004 C11.83996,11.11104 12.80896,12.08004 13.99996,12.08004 C14.09796,12.08004 14.19656,12.07344 14.29296,12.06044 C14.73076,12.00148 15.13364,12.3084 15.19276,12.74628 C15.25188,13.18412 14.9448,13.587 14.50692,13.64608 C14.33992,13.66856 14.16932,13.68 14,13.68 C11.92672,13.68 10.24,11.99328 10.24,9.92 C10.24,7.84672 11.92672,6.16 14,6.16 Z" id="Combined-Shape" fill="#222B45" fill-rule="nonzero"></path>
                                        </g>
                                    </g>
                                </g>
                            </g>
                        </g>
                    </g>
                </g>
            </g>
        </g>
    </g>
</svg>